HIERARCHY
ROOT Hips
{
  OFFSET 37.7089 104.185 330.688
  CHANNELS 6 Xposition Yposition Zposition Zrotation Xrotation Yrotation
  JOINT RightUpLeg
  {
    OFFSET -8.9458 -8.66707 0.101652
    CHANNELS 3 Zrotation Xrotation Yrotation
    JOINT RightLeg
    {
      OFFSET 0 -44.4227 1.3727
      CHANNELS 3 Zrotation Xrotation Yrotation
      JOINT RightFoot
      {
        OFFSET 0.253549 -42.0924 -1.46059
        CHANNELS 3 Zrotation Xrotation Yrotation
        JOINT RightToes
        {
          OFFSET 0.04 -4.41509 8.4991
          CHANNELS 3 Zrotation Xrotation Yrotation
          End Site
          {
            OFFSET -0.08 -0.137448 9.77979
          }
        }
      }
    }
  }
  JOINT Spine
  {
    OFFSET 0 11.8905 0
    CHANNELS 3 Zrotation Xrotation Yrotation
    JOINT Spine1
    {
      OFFSET 0 25.6574 0.127663
      CHANNELS 3 Zrotation Xrotation Yrotation
      JOINT HEad
      {
        OFFSET 0 8.73416 0.011341
        CHANNELS 3 Zrotation Xrotation Yrotation
        End Site
        {
          OFFSET -0.29 12.7742 2.51395
        }
      }
      JOINT LeftShoulder1
      {
        OFFSET 8.99 -0.362252 -0.22
        CHANNELS 3 Zrotation Xrotation Yrotation
        JOINT LeftArm
        {
          OFFSET 10.2827 -0.00338 0.322123
          CHANNELS 3 Zrotation Xrotation Yrotation
          JOINT LeftForeArm
          {
            OFFSET 32.7669 0.099144 -1.42434
            CHANNELS 3 Zrotation Xrotation Yrotation
            JOINT LeftHand
            {
              OFFSET 27.5643 0.085362 1.02216
              CHANNELS 3 Zrotation Xrotation Yrotation
              End Site
              {
                OFFSET 16.7443 -0.6 1.50291
              }
            }
          }
        }
      }
      JOINT RightShoulder
      {
        OFFSET -8.99 -0.362252 -0.22
        CHANNELS 3 Zrotation Xrotation Yrotation
        JOINT RightArm
        {
          OFFSET -10.2827 -0.00338 0.322123
          CHANNELS 3 Zrotation Xrotation Yrotation
          JOINT RightForeArm
          {
            OFFSET -32.8971 0.099144 -1.42434
            CHANNELS 3 Zrotation Xrotation Yrotation
            JOINT RightHand
            {
              OFFSET -27.4921 0.085362 1.02216
              CHANNELS 3 Zrotation Xrotation Yrotation
              End Site
              {
                OFFSET -16.6312 -0.6 1.50291
              }
            }
          }
        }
      }
    }
  }
  JOINT LeftUpLeg
  {
    OFFSET 8.9458 -8.66707 0.101652
    CHANNELS 3 Zrotation Xrotation Yrotation
    JOINT LeftLeg
    {
      OFFSET 0 -44.4227 1.3727
      CHANNELS 3 Zrotation Xrotation Yrotation
      JOINT LeftFoot
      {
        OFFSET -0.253549 -42.0924 -1.46059
        CHANNELS 3 Zrotation Xrotation Yrotation
        JOINT LeftToes
        {
          OFFSET -0.04 -4.41509 8.4991
          CHANNELS 3 Zrotation Xrotation Yrotation
          End Site
          {
            OFFSET 0.08 -0.047448 9.77979
          }
        }
      }
    }
  }
}
MOTION
Frames:	18
Frame Time:	0.0166667
0	104.189	0	2.03923	2.40231	159.308	1.16594	3.37275	-2.8633	2.23469	7.95333	-19.7103	0.474485	-6.06742	-2.54136	0.0462048	0.000533964	0.662642	0.160877	-2.58265	-0.824476	0.284921	-5.16456	-1.64445	3.98002	12.5223	34.9342	3.53E-31	3.18E-15	-6.36E-15	2.31671	-11.7186	-6.20268	-0.0280869	9.90011	-4.51372	3.60378	11.4026	6.10663	3.53E-31	3.18E-15	-6.36E-15	2.99286	-9.99175	3.78199	1.12762	15.9741	-1.22571	-0.42322	10.1451	-1.1354	-1.02101	4.50033	4.8761	3.11601	9.14755	-1.93728	-5.81723	-11.1924	-0.927682	1.57E-14	3.20E-14	6.36E-15
-0.0227	104.19	0.007	2.03374	2.41378	159.312	1.14263	3.37944	-2.87275	2.24412	7.94409	-19.6996	0.481503	-6.06938	-2.72947	0.0462048	0.000533964	0.662642	0.161114	-2.58645	-0.826943	0.285231	-5.17217	-1.64937	4.11974	12.5239	35.0354	-7.95E-16	4.77E-15	3.18E-15	2.262	-11.699	-6.17891	-0.0699286	9.95898	-4.54431	3.57307	11.3768	6.06257	-7.95E-16	4.77E-15	3.18E-15	3.00238	-10.0077	3.77504	1.12507	15.9835	-1.19841	-0.40324	10.1629	-1.10189	-1.03476	4.50762	4.86927	3.10809	9.13609	-1.9424	-5.79967	-11.198	-0.918391	1.36E-14	3.20E-14	6.36E-15
-0.0454	104.188	0.01	2.02564	2.41649	159.307	1.12185	3.378	-2.88397	2.24597	7.93386	-19.6789	0.48143	-6.07721	-2.76477	0.0462048	0.000533964	0.662642	0.16192	-2.58931	-0.826836	0.283195	-5.17956	-1.65091	4.22499	12.5245	35.1303	0	1.59E-15	0	2.22806	-11.6593	-6.14516	-0.0988753	10.0265	-4.54987	3.53201	11.3484	6.04061	0	1.59E-15	0	3.01913	-9.99705	3.78245	1.12241	15.9753	-1.19019	-0.38872	10.1432	-1.08284	-1.04708	4.50668	4.8645	3.09758	9.12406	-1.94533	-5.78149	-11.2069	-0.911143	1.59E-14	3.12E-14	9.54E-15
-0.0665	104.185	0.014	2.01882	2.40931	159.299	1.10511	3.36662	-2.8922	2.24833	7.92442	-19.6622	0.47929	-6.08712	-2.76161	0.0462048	0.000533964	0.662642	0.162936	-2.59252	-0.825024	0.281106	-5.18426	-1.64564	4.29237	12.506	35.213	7.95E-16	0	0	2.21594	-11.6486	-6.12059	-0.118838	10.1136	-4.52293	3.50355	11.3448	6.06161	7.95E-16	0	0	3.04173	-9.97485	3.77065	1.12118	15.9697	-1.19547	-0.348401	10.1405	-1.07554	-1.05229	4.49394	4.85189	3.08981	9.11462	-1.94297	-5.76862	-11.216	-0.905076	1.63E-14	3.20E-14	3.18E-15
-0.0706	104.183	0.034	2.01458	2.39177	159.29	1.08674	3.34836	-2.89386	2.2443	7.91715	-19.6544	0.474871	-6.095	-2.46937	0.0462048	0.000533964	0.662642	0.164196	-2.59769	-0.820671	0.281916	-5.19461	-1.63688	4.31289	12.4885	35.2898	1.77E-31	1.59E-15	-6.36E-15	2.20615	-11.6594	-6.09089	-0.109423	10.1605	-4.47511	3.47463	11.3582	6.10079	1.77E-31	1.59E-15	-6.36E-15	3.04839	-9.96202	3.75602	1.12264	16.0061	-1.2104	-0.306986	10.1693	-1.08082	-1.04546	4.47247	4.83697	3.07724	9.10347	-1.93072	-5.75908	-11.2192	-0.904583	1.61E-14	3.18E-14	9.54E-15
-0.0857	104.181	0.04	2.0141	2.37387	159.282	1.09162	3.32165	-2.89126	2.24035	7.9147	-19.6343	0.469902	-6.10082	-2.36583	0.0462048	0.000533964	0.662642	0.165609	-2.60307	-0.816795	0.289281	-5.20542	-1.62907	4.30844	12.4771	35.3434	0	-1.59E-15	0	2.19442	-11.676	-6.0519	-0.0737103	10.1303	-4.43874	3.47872	11.3734	6.156	0	-1.59E-15	0	3.04897	-9.95988	3.74004	1.12433	16.0448	-1.22339	-0.288643	10.1947	-1.09458	-1.03889	4.45168	4.83885	3.07253	9.09695	-1.93192	-5.75016	-11.2212	-0.905464	1.46E-14	3.14E-14	9.54E-15
-0.1081	104.178	0.037	2.0174	2.35617	159.273	1.10334	3.29414	-2.88492	2.23785	7.91814	-19.609	0.477153	-6.1078	-2.5755	0.0462048	0.000533964	0.662642	0.167227	-2.60821	-0.812844	0.29781	-5.21576	-1.62083	4.29424	12.481	35.3854	7.95E-16	1.59E-15	3.18E-15	2.19974	-11.6942	-6.00823	-0.0403079	10.0983	-4.42074	3.49813	11.3632	6.1987	7.95E-16	1.59E-15	3.18E-15	3.04629	-9.96577	3.72058	1.12521	16.0356	-1.229	-0.293904	10.1931	-1.09691	-1.02367	4.43004	4.85587	3.0633	9.09418	-1.94908	-5.73779	-11.2237	-0.90489	1.48E-14	3.22E-14	9.54E-15
-0.1194	104.175	0.048	2.02783	2.34629	159.262	1.0995	3.27944	-2.86019	2.23969	7.92694	-19.5988	0.484629	-6.11595	-2.55039	0.0462048	0.000533964	0.662642	0.169532	-2.61091	-0.80819	0.304706	-5.22288	-1.61135	4.28112	12.5003	35.424	-7.95E-16	-1.59E-15	3.18E-15	2.25215	-11.7121	-5.96845	-0.0395082	10.1184	-4.4073	3.4937	11.3588	6.2143	-7.95E-16	-1.59E-15	3.18E-15	3.04135	-9.9753	3.69505	1.12936	16.0009	-1.23155	-0.295332	10.1807	-1.0939	-1.00505	4.41698	4.89139	3.05806	9.09225	-1.97439	-5.72783	-11.226	-0.986071	1.63E-14	3.16E-14	9.54E-15
-0.1382	104.172	0.053	2.03785	2.34751	159.267	1.0977	3.27226	-2.84814	2.2447	7.94022	-19.5987	0.485686	-6.12544	-2.53194	0.0462048	0.000533964	0.662642	0.171679	-2.61293	-0.804764	0.307034	-5.22523	-1.6044	4.26456	12.5233	35.4535	-7.95E-16	-1.59E-15	-3.18E-15	2.3044	-11.7132	-5.96356	-0.0227919	10.1374	-4.37902	3.46927	11.3961	6.21521	-7.95E-16	-1.59E-15	-3.18E-15	3.03337	-9.97032	3.65865	1.1458	15.9957	-1.23315	-0.282517	10.1838	-1.09084	-0.993345	4.41432	4.91189	3.05312	9.09112	-1.99233	-5.7158	-11.2282	-0.949469	1.58E-14	3.20E-14	3.18E-15
-0.1563	104.166	0.059	2.04662	2.3534	159.283	1.09831	3.26698	-2.85053	2.24765	7.94978	-19.5941	0.491832	-6.13334	-2.58644	0.0462048	0.000533964	0.662642	0.172842	-2.61518	-0.801461	0.311527	-5.22983	-1.59776	4.24363	12.5565	35.463	7.95E-16	3.18E-15	0	2.33107	-11.7067	-5.9937	0.0245292	10.1224	-4.33505	3.49342	11.4179	6.2516	7.95E-16	3.18E-15	0	3.02324	-9.93241	3.61586	1.14809	16.0188	-1.2336	-0.256028	10.1999	-1.0928	-0.991483	4.41087	4.91195	3.05089	9.09075	-1.99779	-5.70425	-11.2302	-0.931042	1.49E-14	3.16E-14	1.59E-14
-0.1659	104.161	0.071	2.05722	2.3582	159.303	1.10289	3.26977	-2.85349	2.24856	7.95308	-19.5912	0.495796	-6.13858	-2.52324	0.0462048	0.000533964	0.662642	0.173499	-2.61745	-0.797299	0.315871	-5.23485	-1.58929	4.21734	12.6002	35.4773	0	0	0	2.3479	-11.7051	-6.05133	0.0634287	10.055	-4.28546	3.57765	11.4051	6.3153	0	0	0	3.01489	-9.90321	3.56798	1.12694	16.0287	-1.23245	-0.254324	10.1954	-1.10183	-0.98647	4.40802	4.89181	3.04942	9.091	-1.99453	-5.6988	-11.2319	-0.919163	1.46E-14	3.24E-14	3.18E-15
-0.1768	104.156	0.077	2.06683	2.35892	159.329	1.11585	3.27007	-2.84506	2.25105	7.95211	-19.6094	0.49816	-6.14068	-2.49871	0.0462048	0.000533964	0.662642	0.173799	-2.62021	-0.793769	0.317662	-5.23984	-1.58065	4.19975	12.6295	35.5139	0	1.59E-15	0	2.37127	-11.7233	-6.11918	0.0928292	9.95496	-4.25742	3.63608	11.4054	6.34763	0	1.59E-15	0	3.03139	-9.91221	3.50918	1.09299	15.9897	-1.22727	-0.276668	10.1476	-1.11124	-0.980085	4.40756	4.85747	3.05094	9.09171	-1.99662	-5.69474	-11.2329	-0.907836	1.51E-14	3.14E-14	6.36E-15
-0.1972	104.152	0.071	2.06967	2.34009	159.374	1.12934	3.2502	-2.83538	2.25567	7.94901	-19.6479	0.508438	-6.14405	-2.65737	0.0462048	0.000533964	0.662642	0.173949	-2.6241	-0.791096	0.317452	-5.24763	-1.57675	4.18945	12.6283	35.575	7.95E-16	0	3.18E-15	2.38474	-11.8076	-6.1964	0.127057	9.88721	-4.25788	3.64967	11.449	6.33752	7.95E-16	0	3.18E-15	3.07948	-10.0206	3.42539	1.05011	15.9178	-1.18681	-0.291313	10.1039	-1.12117	-0.972207	4.38674	4.82328	3.06432	9.0927	-2.0175	-5.69437	-11.2324	-0.909344	1.61E-14	3.14E-14	1.27E-14
-0.1969	104.147	0.088	2.07502	2.31826	159.425	1.12166	3.235	-2.8285	2.25995	7.94792	-19.6818	0.517049	-6.15185	-2.43008	0.0462048	0.000533964	0.662642	0.174144	-2.63067	-0.789474	0.316826	-5.26076	-1.56974	4.18982	12.6343	35.609	-7.95E-16	1.59E-15	-3.18E-15	2.35778	-11.909	-6.29393	0.165968	9.89511	-4.28769	3.65596	11.4747	6.32799	-7.95E-16	1.59E-15	-3.18E-15	3.1451	-10.2306	3.30151	0.997738	15.8059	-1.11076	-0.259964	10.0523	-1.09324	-0.960676	4.35957	4.78928	3.07326	9.09403	-2.03277	-5.69492	-11.2284	-0.909975	1.35E-14	3.16E-14	9.54E-15
-0.2219	104.143	0.082	2.07825	2.30581	159.481	1.13553	3.21474	-2.84833	2.26411	7.95189	-19.7048	0.514627	-6.15836	-2.48903	0.0462048	0.000533964	0.662642	0.174672	-2.63692	-0.788382	0.31618	-5.27323	-1.56734	4.2136	12.6613	35.608	-8.83E-32	-1.59E-15	-3.18E-15	2.34038	-11.9781	-6.38528	0.188978	9.9199	-4.34579	3.65226	11.4763	6.30905	-8.83E-32	-1.59E-15	-3.18E-15	3.18436	-10.4496	3.15178	0.983393	15.6662	-1.02724	-0.128261	9.98468	-1.00073	-0.94834	4.33914	4.7689	3.07645	9.0955	-2.05595	-5.69641	-11.2189	-0.910562	1.34E-14	3.18E-14	1.27E-14
-0.2416	104.141	0.084	2.08231	2.30178	159.534	1.13615	3.20859	-2.86252	2.26685	7.95528	-19.7311	0.526315	-6.1574	-2.66838	0.0462048	0.000533964	0.662642	0.175765	-2.64268	-0.787735	0.316721	-5.28476	-1.56667	4.24236	12.6956	35.6174	7.95E-16	4.77E-15	3.18E-15	2.34521	-11.9958	-6.47359	0.190249	9.90949	-4.40039	3.66673	11.4837	6.27766	7.95E-16	4.77E-15	3.18E-15	3.22555	-10.5926	3.05332	0.98982	15.6657	-1.00001	0.0844475	10.0097	-0.922019	-0.939079	4.32273	4.76705	3.07795	9.09703	-2.08623	-5.69872	-11.2037	-0.910928	1.68E-14	3.18E-14	3.18E-15
-0.2615	104.14	0.087	2.08757	2.30288	159.591	1.13545	3.20326	-2.84944	2.27109	7.96179	-19.7874	0.533672	-6.15435	-2.6879	0.0462048	0.000533964	0.662642	0.177635	-2.64915	-0.787448	0.319361	-5.29769	-1.5673	4.24773	12.7181	35.6518	0	0	3.18E-15	2.34735	-11.9923	-6.55073	0.186052	9.89552	-4.44887	3.67849	11.4944	6.24316	0	0	3.18E-15	3.27189	-10.5015	3.04621	0.990234	15.8983	-1.04773	0.279501	10.0802	-0.941594	-0.928672	4.3104	4.76331	3.08064	9.09847	-2.13289	-5.70184	-11.1883	-0.910918	1.42E-14	3.20E-14	3.18E-15
-0.2878	104.138	0.089	2.09573	2.30781	159.641	1.14575	3.20412	-2.82655	2.26867	7.97304	-19.8442	0.544467	-6.15132	-2.82185	0.0462048	0.000533964	0.662642	0.181692	-2.65491	-0.787435	0.327354	-5.30928	-1.56881	4.22765	12.7097	35.7019	7.95E-16	-1.59E-15	-6.36E-15	2.31156	-12.0028	-6.6075	0.201304	9.89952	-4.50059	3.69941	11.503	6.23495	7.95E-16	-1.59E-15	-6.36E-15	3.25729	-10.2415	3.07413	1.01998	16.1929	-1.10017	0.317239	10.1647	-0.945797	-0.919538	4.30478	4.77682	3.08418	9.10122	-2.19608	-5.70883	-11.1792	-0.910378	1.52E-14	3.12E-14	9.54E-15
